# Blender v2.93.5 OBJ File: ''
# www.blender.org
o Cube
v 41.747456 -6.729181 35.535778
v 32.720047 -3.944971 32.007675
v 46.001335 -6.968382 24.462538
v 36.973927 -4.184171 20.934437
v 43.586208 -0.054877 36.097973
v 34.558800 2.729334 32.569870
v 47.840088 -0.294077 25.024734
v 38.812679 2.490134 21.496632
vt 0.875000 0.500000
vt 0.625000 0.500000
vt 0.625000 0.750000
vt 0.375000 0.750000
vt 0.375000 1.000000
vt 0.625000 0.000000
vt 0.375000 0.000000
vt 0.375000 0.250000
vt 0.375000 0.500000
vt 0.125000 0.500000
vt 0.125000 0.750000
vt 0.625000 0.250000
vt 0.875000 0.750000
vt 0.625000 1.000000
vn 0.8952 -0.2761 0.3499
vn 0.3585 -0.0202 -0.9333
vn 0.2647 0.9609 0.0809
vn -0.8952 0.2761 -0.3499
vn -0.2647 -0.9609 -0.0809
vn -0.3585 0.0202 0.9333
s off
f 5/1/1 1/2/1 3/3/1
f 3/3/2 4/4/2 8/5/2
f 7/6/3 8/7/3 6/8/3
f 2/9/4 6/10/4 8/11/4
f 1/2/5 2/9/5 4/4/5
f 5/12/6 6/8/6 2/9/6
f 5/1/1 3/3/1 7/13/1
f 3/3/2 8/5/2 7/14/2
f 7/6/3 6/8/3 5/12/3
f 2/9/4 8/11/4 4/4/4
f 1/2/5 4/4/5 3/3/5
f 5/12/6 2/9/6 1/2/6
o Cube.003_Cube.004
v 31.509315 -3.551480 31.534061
v 24.193958 0.397774 28.638494
v 35.763199 -3.790680 20.460823
v 28.447840 0.158574 17.565254
v 34.437252 2.599321 32.525986
v 27.121893 6.548576 29.630417
v 38.691132 2.360121 21.452745
v 31.375774 6.309375 18.557178
vt 0.875000 0.500000
vt 0.625000 0.500000
vt 0.625000 0.750000
vt 0.375000 0.750000
vt 0.375000 1.000000
vt 0.625000 0.000000
vt 0.375000 0.000000
vt 0.375000 0.250000
vt 0.375000 0.500000
vt 0.125000 0.500000
vt 0.125000 0.750000
vt 0.625000 0.250000
vt 0.875000 0.750000
vt 0.625000 1.000000
vn 0.8310 -0.4486 0.3289
vn 0.3585 -0.0202 -0.9333
vn 0.4253 0.8935 0.1441
vn -0.8310 0.4486 -0.3289
vn -0.4253 -0.8935 -0.1441
vn -0.3585 0.0202 0.9333
s off
f 13/15/7 9/16/7 11/17/7
f 11/17/8 12/18/8 16/19/8
f 15/20/9 16/21/9 14/22/9
f 10/23/10 14/24/10 16/25/10
f 9/16/11 10/23/11 12/18/11
f 13/26/12 14/22/12 10/23/12
f 13/15/7 11/17/7 15/27/7
f 11/17/8 16/19/8 15/28/8
f 15/20/9 14/22/9 13/26/9
f 10/23/10 16/25/10 12/18/10
f 9/16/11 12/18/11 11/17/11
f 13/26/12 10/23/12 9/16/12
o Cube.004_Cube.005
v 28.475239 1.802671 29.395521
v 22.779280 1.802671 31.162058
v 26.094351 1.802671 21.718672
v 20.398392 1.802671 23.485209
v 28.475239 6.466151 29.395521
v 22.779280 6.466152 31.162058
v 26.094351 6.466151 21.718672
v 20.398392 6.466152 23.485209
vt 0.875000 0.500000
vt 0.625000 0.500000
vt 0.625000 0.750000
vt 0.375000 0.750000
vt 0.375000 1.000000
vt 0.625000 0.000000
vt 0.375000 0.000000
vt 0.375000 0.250000
vt 0.375000 0.500000
vt 0.125000 0.500000
vt 0.125000 0.750000
vt 0.625000 0.250000
vt 0.875000 0.750000
vt 0.625000 1.000000
vn 0.9551 0.0000 -0.2962
vn -0.2962 0.0000 -0.9551
vn 0.0000 1.0000 -0.0000
vn -0.9551 0.0000 0.2962
vn -0.0000 -1.0000 0.0000
vn 0.2962 0.0000 0.9551
s off
f 21/29/13 17/30/13 19/31/13
f 19/31/14 20/32/14 24/33/14
f 23/34/15 24/35/15 22/36/15
f 18/37/16 22/38/16 24/39/16
f 17/30/17 18/37/17 20/32/17
f 21/40/18 22/36/18 18/37/18
f 21/29/13 19/31/13 23/41/13
f 19/31/14 24/33/14 23/42/14
f 23/34/15 22/36/15 21/40/15
f 18/37/16 24/39/16 20/32/16
f 17/30/17 20/32/17 19/31/17
f 21/40/18 18/37/18 17/30/18
