# Blender 3.1.0
# www.blender.org
mtllib cactus.mtl
o Normal Cactus
v 0.000000 0.000000 -0.339407
v -0.268542 0.000000 -0.228173
v -0.379776 0.000000 0.040369
v -0.268542 0.000000 0.308911
v 0.000000 0.000000 0.420144
v 0.268542 0.000000 0.308911
v 0.379776 0.000000 0.040369
v 0.268542 0.000000 -0.228173
v 0.042859 1.817218 -0.367635
v -0.245643 1.817218 -0.248133
v -0.365145 1.817218 0.040369
v -0.245643 1.817218 0.328871
v 0.042859 1.817218 0.448373
v 0.331361 1.817218 0.328871
v 0.450863 1.817218 0.040369
v 0.331361 1.817218 -0.248133
v -0.091907 4.690480 -0.420696
v -0.398024 4.694706 -0.295768
v -0.526121 4.710891 0.008635
v -0.401161 4.729553 0.314199
v -0.096344 4.739760 0.441928
v 0.209773 4.735533 0.317000
v 0.337871 4.719349 0.012596
v 0.212911 4.700688 -0.292968
v -0.063268 7.071311 -0.532585
v -0.352426 7.075303 -0.414578
v -0.473426 7.090591 -0.127039
v -0.355389 7.108219 0.161596
v -0.067459 7.117861 0.282248
v 0.221698 7.113868 0.164241
v 0.342699 7.098580 -0.123298
v 0.224662 7.080953 -0.411933
v -0.065412 7.232861 -0.409823
v -0.261190 7.235564 -0.329924
v -0.343115 7.245915 -0.135242
v -0.263197 7.257850 0.060182
v -0.068250 7.264378 0.141871
v 0.127528 7.261674 0.061973
v 0.209453 7.251324 -0.132709
v 0.129534 7.239389 -0.328133
v -0.066654 7.292560 -0.266510
v -0.158634 7.293830 -0.228972
v -0.197124 7.298693 -0.137506
v -0.159577 7.304300 -0.045692
v -0.067987 7.307368 -0.007313
v 0.023994 7.306098 -0.044851
v 0.062484 7.301235 -0.136316
v 0.024936 7.295627 -0.228130
v 0.380826 3.227628 -0.074048
v 0.255547 3.259450 -0.368377
v -0.035884 3.192441 0.347772
v 0.260110 3.199872 0.222590
v -0.459047 3.241508 -0.066161
v -0.333769 3.209686 0.228168
v -0.042337 3.276695 -0.487982
v -0.338332 3.269264 -0.362800
v -0.080338 5.579942 0.245491
v -0.180293 5.537456 0.242565
v -0.220860 5.436852 0.236422
v -0.178276 5.337062 0.230661
v -0.077486 5.296542 0.228655
v 0.022469 5.339027 0.231581
v 0.063036 5.439631 0.237724
v 0.020452 5.539422 0.243485
v -0.067138 5.550322 0.924246
v -0.174522 5.504679 0.921102
v -0.218105 5.396597 0.914503
v -0.172356 5.289391 0.908313
v -0.064075 5.245859 0.906158
v 0.043310 5.291502 0.909302
v 0.086892 5.399583 0.915901
v 0.041143 5.506791 0.922091
v -0.100445 5.805269 1.354659
v -0.214639 5.785220 1.397480
v -0.261966 5.739050 1.501904
v -0.214703 5.693806 1.606761
v -0.100536 5.675992 1.650628
v 0.013658 5.696042 1.607808
v 0.060985 5.742212 1.503384
v 0.013722 5.787455 1.398527
v -0.090849 6.618086 1.719459
v -0.198717 6.599146 1.759907
v -0.243422 6.555535 1.858545
v -0.198777 6.512798 1.957594
v -0.090935 6.495971 1.999030
v 0.016932 6.514910 1.958582
v 0.061637 6.558521 1.859944
v 0.016993 6.601259 1.760896
v -0.091486 6.651216 1.787684
v -0.164519 6.638393 1.815070
v -0.194788 6.608866 1.881854
v -0.164561 6.579930 1.948917
v -0.091545 6.568537 1.976972
v -0.018512 6.581359 1.949586
v 0.011757 6.610888 1.882801
v -0.018470 6.639823 1.815740
v -0.091710 6.646914 1.845557
v -0.126022 6.640890 1.858424
v -0.140243 6.627017 1.889800
v -0.126041 6.613422 1.921307
v -0.091737 6.608070 1.934488
v -0.057425 6.614095 1.921622
v -0.043204 6.627967 1.890245
v -0.057405 6.641562 1.858738
v -0.128271 3.213066 -0.230956
v -0.235550 3.165402 -0.186855
v -0.276248 3.050331 -0.158082
v -0.226523 2.935259 -0.161492
v -0.115505 2.887595 -0.195088
v -0.008226 2.935259 -0.239189
v 0.032471 3.050331 -0.267962
v -0.017253 3.165402 -0.264551
v -0.372431 3.134074 -0.972094
v -0.487684 3.082868 -0.924715
v -0.531406 2.959243 -0.893804
v -0.477986 2.835618 -0.897467
v -0.358716 2.784411 -0.933560
v -0.243463 2.835618 -0.980939
v -0.199740 2.959243 -1.011850
v -0.253161 3.082868 -1.008187
v -0.589491 3.399849 -1.439985
v -0.729888 3.375179 -1.445453
v -0.818220 3.315620 -1.540322
v -0.802742 3.256060 -1.669020
v -0.692522 3.231390 -1.756157
v -0.552125 3.256060 -1.750690
v -0.463793 3.315620 -1.655820
v -0.479271 3.375179 -1.527123
v -0.715197 4.312286 -1.897352
v -0.847816 4.288983 -1.902516
v -0.931254 4.232722 -1.992129
v -0.916634 4.176463 -2.113697
v -0.812520 4.153160 -2.196006
v -0.679901 4.176463 -2.190842
v -0.596463 4.232722 -2.101228
v -0.611083 4.288983 -1.979661
v -0.740232 4.345973 -1.974176
v -0.830023 4.330195 -1.977673
v -0.886516 4.292103 -2.038347
v -0.876618 4.254012 -2.120656
v -0.806126 4.238235 -2.176384
v -0.716335 4.254012 -2.172888
v -0.659842 4.292104 -2.112213
v -0.669740 4.330195 -2.029905
v -0.760807 4.337205 -2.037313
v -0.802992 4.329793 -2.038956
v -0.829534 4.311897 -2.067462
v -0.824883 4.294000 -2.106132
v -0.791765 4.286589 -2.132315
v -0.749579 4.294001 -2.130672
v -0.723038 4.311897 -2.102166
v -0.727688 4.329793 -2.063496
vn -11.4803 -0.1598 27.7160
vn -27.7156 0.2231 -11.4802
vn 27.6983 -1.0835 -11.4730
vn 11.4774 -0.7011 27.7088
vn -27.7156 0.2231 11.4802
vn -11.4803 -0.1598 -27.7160
vn 11.4774 -0.7011 -27.7088
vn 27.6983 -1.0835 11.4730
vn 27.6276 1.4245 -11.6054
vn 11.7023 -1.3127 27.5923
vn -27.6226 -1.8492 11.5574
vn -11.6995 0.9038 -27.6099
vn 11.2472 1.7849 -27.7546
vn 27.7823 0.1426 11.3192
vn -11.2559 -2.1270 27.7269
vn -27.7606 -0.6285 -11.3558
vn -27.6524 -0.0510 -11.6338
vn 27.7752 -0.7027 -11.3157
vn 11.3372 1.7237 27.7218
vn -27.7702 1.2580 11.2798
vn -11.3408 -1.1677 -27.7493
vn 11.6218 -1.4378 -27.6200
vn 27.6573 0.6068 11.6063
vn -11.6254 1.9934 27.5840
vn 8.9469 17.4003 -22.7417
vn 21.5336 19.2800 8.0365
vn -9.3003 19.7057 20.6201
vn -21.8871 17.8260 -10.1582
vn 21.6261 18.2520 -9.9587
vn 8.7234 19.8822 20.7027
vn -21.9797 18.8540 7.8371
vn -9.0770 17.2239 -22.8243
vn -10.1327 28.1326 2.4257
vn -4.2943 27.3949 -11.4490
vn 3.8617 27.4747 -11.4116
vn 9.5576 28.3253 2.5160
vn -4.3953 28.5180 8.2101
vn -10.0907 27.6674 -5.7175
vn 9.5993 27.8602 -5.6271
vn 3.7609 28.5978 8.2476
vn -0.2856 29.9497 -1.7125
vn -27.6060 -2.6753 -11.4348
vn -11.4686 1.3687 27.6875
vn 27.6345 2.3039 11.4466
vn 11.4620 -1.7045 -27.6716
vn -11.4252 -2.9414 -27.5828
vn -27.7033 -0.9234 11.4751
vn 11.4335 2.7110 27.6030
vn 27.7133 0.4449 -11.4792
vn -11.2008 -27.7687 -1.8556
vn -27.8302 11.1749 0.7765
vn 27.5857 11.7878 -0.2743
vn 11.7579 -27.5046 -2.2903
vn -27.5996 -11.7438 -0.5850
vn -11.7578 27.5628 1.4314
vn 11.2010 27.8127 0.9959
vn 27.8163 -11.1167 -1.6350
vn 27.0239 11.8450 -5.4224
vn 9.9119 -24.3181 14.5046
vn -27.0616 -11.8497 5.2204
vn -9.7876 24.0608 -15.0094
vn 9.6560 24.7124 -14.0021
vn 26.7151 -11.2451 7.7364
vn -9.6892 -24.7869 13.8466
vn -26.4055 11.1856 -8.8109
vn -27.7092 5.1251 -10.2925
vn 27.7199 4.5734 -10.5210
vn 11.4717 -10.9537 25.4640
vn -27.7157 -4.0617 10.7399
vn -11.4760 11.4622 -25.2372
vn 11.4874 11.2346 -25.3342
vn 27.7134 -4.6168 10.5191
vn -11.4917 -10.7228 25.5532
vn 8.8172 25.8269 -12.4590
vn 21.5533 13.6349 15.7970
vn -9.2188 8.2320 27.3358
vn -21.9550 20.4238 -0.9205
vn 21.5582 20.8500 -0.7207
vn 8.8049 8.4085 27.4184
vn -21.9600 13.2089 15.5976
vn -9.2067 25.6504 -12.5416
vn -10.1492 23.9686 14.9164
vn -4.3778 29.5985 2.1829
vn 3.7779 29.6783 2.2200
vn 9.5411 24.1612 15.0068
vn -4.3839 21.7164 20.2282
vn -10.1473 27.2333 7.4418
vn 9.5440 27.4260 7.5318
vn 3.7724 21.7963 20.2655
vn -0.3244 27.4903 12.0075
vn -9.6827 -27.5098 7.0327
vn -26.6326 11.3765 7.8281
vn 26.0086 11.5212 -9.5296
vn 12.1258 -27.4397 -0.1595
vn -25.7381 -11.4284 10.3412
vn -11.8422 27.5469 0.9653
vn 9.9669 27.6026 -6.2254
vn 26.9026 -11.2694 -7.0180
vn 26.2047 14.1992 -3.4197
vn 4.7457 -25.1551 -15.6429
vn -27.1082 -11.8605 4.9470
vn -4.9800 24.7484 16.2086
vn 12.6757 25.7462 8.7441
vn 22.5201 -11.9235 -15.8327
vn -13.4672 -25.4663 -8.3728
vn -23.5566 9.7393 15.8188
vn -23.2922 5.9676 17.9405
vn 29.5687 4.9026 1.2871
vn 3.2505 -12.4980 -27.0783
vn -29.6357 -4.4043 -1.5258
vn -3.3281 12.9927 26.8349
vn 18.5720 12.5526 19.9377
vn 23.2228 -5.4731 -18.1865
vn -18.6469 -12.0541 -20.1740
vn 11.9804 26.4109 7.6768
vn 15.5941 12.5055 -22.3704
vn -17.1847 6.7456 -23.6471
vn -20.7983 20.6510 6.4003
vn 20.5759 20.6511 -7.0824
vn -0.0471 6.7456 -29.2317
vn -25.7803 12.5054 -8.8876
vn -5.1572 26.4109 13.2616
vn -14.4147 23.1735 -12.4581
vn -5.0827 29.4659 -2.4349
vn 2.6721 29.4658 -4.9624
vn 4.3074 23.1736 -18.5588
vn -10.5266 20.5667 -19.1363
vn -12.1605 26.8595 -5.5398
vn 6.5618 26.8594 -11.6410
vn -2.7695 20.5676 -21.6634
vn -4.2000 26.7620 -12.8900
vn -11.4804 -0.1598 -27.7160
vn 27.7035 1.4610 -11.4185
vn 11.3110 -1.2471 27.7580
vn -27.6733 -1.8741 11.4314
vn -11.3214 0.8318 -27.7693
vn 11.5262 1.7198 -27.6440
vn 27.6545 0.1917 11.6272
vn -11.5074 -2.0741 27.6275
vn -27.6572 -0.6719 -11.6028
vn 11.6219 -1.4378 -27.6200
vn 8.9468 17.4003 -22.7417
vn 21.5335 19.2801 8.0366
vn -9.3005 19.7057 20.6200
vn 21.6262 18.2520 -9.9586
vn 8.7235 19.8821 20.7027
vn -9.0769 17.2239 -22.8243
vn -4.2942 27.3949 -11.4490
vn 3.8618 27.4748 -11.4116
vn 9.5578 28.3252 2.5160
vn -4.3955 28.5179 8.2102
vn -10.0914 27.6672 -5.7174
vn 9.5996 27.8600 -5.6273
vn 3.7606 28.5978 8.2476
vn -0.2851 29.9497 -1.7124
vn -0.2848 29.9497 -1.7123
vn -0.2855 29.9497 -1.7125
vn -0.2854 29.9497 -1.7125
vn -27.5893 -2.6674 -11.4768
vn -11.1020 1.3107 27.8393
vn 27.6296 2.3016 11.4590
vn 11.0789 -1.6481 -27.8306
vn -11.5683 -2.9122 -27.5262
vn -27.6266 -0.9496 11.6563
vn 11.5818 2.6781 27.5443
vn 27.6186 0.4760 -11.7041
vn -11.2005 -27.7688 -1.8556
vn 27.5858 11.7876 -0.2743
vn 11.7576 -27.5048 -2.2904
vn -27.5996 -11.7440 -0.5851
vn -11.7573 27.5629 1.4314
vn 11.2013 27.8126 0.9958
vn 27.8162 -11.1168 -1.6350
vn 26.3566 12.8534 -6.3340
vn 9.7338 -24.3616 14.5522
vn -26.1129 -13.5240 5.9346
vn -9.8439 24.0489 -14.9915
vn 9.2617 24.8594 -14.0083
vn 26.9667 -10.8463 7.4264
vn -9.2264 -24.9427 13.8829
vn -27.1558 10.0280 -7.8740
vn 11.4716 -10.9538 25.4641
vn -11.4760 11.4622 -25.2373
vn 11.4871 11.2346 -25.3343
vn -11.4914 -10.7228 25.5533
vn 8.8171 25.8269 -12.4590
vn 21.5532 13.6350 15.7971
vn -9.2190 8.2319 27.3358
vn -21.9548 20.4240 -0.9204
vn 21.5584 20.8499 -0.7212
vn 8.8051 8.4085 27.4184
vn -21.9598 13.2091 15.5976
vn -9.2065 25.6503 -12.5420
vn -10.1497 23.9684 14.9163
vn -4.3783 29.5984 2.1830
vn 3.7769 29.6783 2.2204
vn 9.5413 24.1613 15.0066
vn -4.3841 21.7166 20.2279
vn -10.1470 27.2332 7.4425
vn 9.5433 27.4259 7.5328
vn 3.7720 21.7959 20.2660
vn -0.3247 27.4901 12.0080
vn -0.3231 27.4903 12.0073
vn -0.3255 27.4904 12.0071
vn -0.3255 27.4898 12.0085
vn -0.3241 27.4902 12.0075
vn -9.6829 -27.5097 7.0327
vn -26.6326 11.3765 7.8280
vn 26.0087 11.5212 -9.5296
vn 12.1260 -27.4397 -0.1596
vn -25.7381 -11.4284 10.3413
vn 27.1682 11.8752 -4.5682
vn 5.0183 -25.0866 -15.6678
vn -26.0325 -14.4766 3.5689
vn -4.4043 24.8790 16.1752
vn 13.4779 25.4337 8.4540
vn 23.5464 -10.6318 -15.2490
vn -12.6560 -25.7662 -8.7137
vn -21.7937 11.9148 16.8248
vn -23.2922 5.9676 17.9406
vn 3.2506 -12.4980 -27.0783
vn -3.3279 12.9927 26.8349
vn 18.5718 12.5526 19.9379
vn 23.2228 -5.4731 -18.1864
vn -18.6470 -12.0541 -20.1739
vn 15.5941 12.5054 -22.3705
vn -17.1846 6.7458 -23.6471
vn -20.7985 20.6508 6.4002
vn 20.5762 20.6509 -7.0825
vn -0.0469 6.7454 -29.2318
vn -25.7803 12.5054 -8.8877
vn -5.1571 26.4110 13.2614
vn -14.4155 23.1729 -12.4584
vn -5.0822 29.4659 -2.4355
vn 2.6720 29.4660 -4.9615
vn 4.3072 23.1735 -18.5590
vn -10.5255 20.5672 -19.1365
vn -12.1613 26.8591 -5.5398
vn 6.5614 26.8594 -11.6414
vn -2.7703 20.5669 -21.6640
vn -4.2000 26.7617 -12.8908
vn -4.2019 26.7615 -12.8905
vn -4.2005 26.7615 -12.8909
vn -4.2031 26.7612 -12.8908
vn -4.2003 26.7620 -12.8899
vt 0.000000 0.000000
vt 0.000000 0.000000
vt 0.000000 0.000000
vt 0.000000 0.000000
vt 0.000000 0.000000
vt 0.000000 0.000000
vt 0.000000 0.000000
vt 0.000000 0.000000
vt 0.000000 0.000000
vt 0.000000 0.000000
vt 0.000000 0.000000
vt 0.000000 0.000000
vt 0.000000 0.000000
vt 0.000000 0.000000
vt 0.000000 0.000000
vt 0.000000 0.000000
vt 0.000000 0.000000
vt 0.000000 0.000000
vt 0.000000 0.000000
vt 0.000000 0.000000
vt 0.000000 0.000000
vt 0.000000 0.000000
vt 0.000000 0.000000
vt 0.000000 0.000000
vt 0.000000 0.000000
vt 0.000000 0.000000
vt 0.000000 0.000000
vt 0.000000 0.000000
vt 0.000000 0.000000
vt 0.000000 0.000000
vt 0.000000 0.000000
vt 0.000000 0.000000
vt 0.000000 0.000000
vt 0.000000 0.000000
vt 0.000000 0.000000
vt 0.000000 0.000000
vt 0.000000 0.000000
vt 0.000000 0.000000
vt 0.000000 0.000000
vt 0.000000 0.000000
vt 0.000000 0.000000
vt 0.000000 0.000000
vt 0.000000 0.000000
vt 0.000000 0.000000
vt 0.000000 0.000000
vt 0.000000 0.000000
vt 0.000000 0.000000
vt 0.000000 0.000000
vt 0.000000 0.000000
vt 0.000000 0.000000
vt 0.000000 0.000000
vt 0.000000 0.000000
vt 0.000000 0.000000
vt 0.000000 0.000000
vt 0.000000 0.000000
vt 0.000000 0.000000
vt 0.000000 0.000000
vt 0.000000 0.000000
vt 0.000000 0.000000
vt 0.000000 0.000000
vt 0.000000 0.000000
vt 0.000000 0.000000
vt 0.000000 0.000000
vt 0.000000 0.000000
vt 0.000000 0.000000
vt 0.000000 0.000000
vt 0.000000 0.000000
vt 0.000000 0.000000
vt 0.000000 0.000000
vt 0.000000 0.000000
vt 0.000000 0.000000
vt 0.000000 0.000000
vt 0.000000 0.000000
vt 0.000000 0.000000
vt 0.000000 0.000000
vt 0.000000 0.000000
vt 0.000000 0.000000
vt 0.000000 0.000000
vt 0.000000 0.000000
vt 0.000000 0.000000
vt 0.000000 0.000000
vt 0.000000 0.000000
vt 0.000000 0.000000
vt 0.000000 0.000000
vt 0.000000 0.000000
vt 0.000000 0.000000
vt 0.000000 0.000000
vt 0.000000 0.000000
vt 0.000000 0.000000
vt 0.000000 0.000000
vt 0.000000 0.000000
vt 0.000000 0.000000
vt 0.000000 0.000000
vt 0.000000 0.000000
vt 0.000000 0.000000
vt 0.000000 0.000000
vt 0.000000 0.000000
vt 0.000000 0.000000
vt 0.000000 0.000000
vt 0.000000 0.000000
vt 0.000000 0.000000
vt 0.000000 0.000000
vt 0.000000 0.000000
vt 0.000000 0.000000
vt 0.000000 0.000000
vt 0.000000 0.000000
vt 0.000000 0.000000
vt 0.000000 0.000000
vt 0.000000 0.000000
vt 0.000000 0.000000
vt 0.000000 0.000000
vt 0.000000 0.000000
vt 0.000000 0.000000
vt 0.000000 0.000000
vt 0.000000 0.000000
vt 0.000000 0.000000
vt 0.000000 0.000000
vt 0.000000 0.000000
vt 0.000000 0.000000
vt 0.000000 0.000000
vt 0.000000 0.000000
vt 0.000000 0.000000
vt 0.000000 0.000000
vt 0.000000 0.000000
vt 0.000000 0.000000
vt 0.000000 0.000000
vt 0.000000 0.000000
vt 0.000000 0.000000
vt 0.000000 0.000000
vt 0.000000 0.000000
vt 0.000000 0.000000
vt 0.000000 0.000000
vt 0.000000 0.000000
vt 0.000000 0.000000
vt 0.000000 0.000000
vt 0.000000 0.000000
vt 0.000000 0.000000
vt 0.000000 0.000000
vt 0.000000 0.000000
vt 0.000000 0.000000
vt 0.000000 0.000000
vt 0.000000 0.000000
vt 0.000000 0.000000
vt 0.000000 0.000000
vt 0.000000 0.000000
vt 0.000000 0.000000
vt 0.000000 0.000000
vt 0.000000 0.000000
vt 0.000000 0.000000
vt 0.000000 0.000000
vt 0.000000 0.000000
vt 0.000000 0.000000
s 0
usemtl Material.001
f 5/5/1 12/12/1 4/4/1
f 11/11/2 2/2/2 3/3/2
f 16/16/3 7/7/3 8/8/3
f 6/6/4 13/13/4 5/5/4
f 4/4/5 11/11/5 3/3/5
f 10/10/6 1/1/6 2/2/6
f 9/9/7 8/8/7 1/1/7
f 7/7/8 14/14/8 6/6/8
f 24/24/9 49/49/9 50/50/9
f 22/22/10 51/51/10 52/52/10
f 54/54/11 19/19/11 53/53/11
f 56/56/12 17/17/12 55/55/12
f 55/55/13 24/24/13 50/50/13
f 23/23/14 52/52/14 49/49/14
f 21/21/15 54/54/15 51/51/15
f 53/53/16 18/18/16 56/56/16
f 27/27/17 18/18/17 19/19/17
f 32/32/18 23/23/18 24/24/18
f 22/22/19 29/29/19 21/21/19
f 20/20/20 27/27/20 19/19/20
f 26/26/21 17/17/21 18/18/21
f 25/25/22 24/24/22 17/17/22
f 23/23/23 30/30/23 22/22/23
f 21/21/24 28/28/24 20/20/24
f 25/25/25 40/40/25 32/32/25
f 31/31/26 38/38/26 30/30/26
f 29/29/27 36/36/27 28/28/27
f 27/27/28 34/34/28 26/26/28
f 32/32/29 39/39/29 31/31/29
f 38/38/30 29/29/30 30/30/30
f 36/36/31 27/27/31 28/28/31
f 26/26/32 33/33/32 25/25/32
f 36/36/33 43/43/33 35/35/33
f 42/42/34 33/33/34 34/34/34
f 33/33/35 48/48/35 40/40/35
f 39/39/36 46/46/36 38/38/36
f 37/37/37 44/44/37 36/36/37
f 43/43/38 34/34/38 35/35/38
f 48/48/39 39/39/39 40/40/39
f 46/46/40 37/37/40 38/38/40
f 45/45/41 47/47/41 41/41/41
f 53/53/42 10/10/42 11/11/42
f 51/51/43 12/12/43 13/13/43
f 15/15/44 52/52/44 14/14/44
f 9/9/45 50/50/45 16/16/45
f 10/10/46 55/55/46 9/9/46
f 54/54/47 11/11/47 12/12/47
f 52/52/48 13/13/48 14/14/48
f 16/16/49 49/49/49 15/15/49
f 61/61/50 68/68/50 60/60/50
f 67/67/51 58/58/51 59/59/51
f 72/72/52 63/63/52 64/64/52
f 62/62/53 69/69/53 61/61/53
f 60/60/54 67/67/54 59/59/54
f 66/66/55 57/57/55 58/58/55
f 65/65/56 64/64/56 57/57/56
f 63/63/57 70/70/57 62/62/57
f 80/80/58 71/71/58 72/72/58
f 78/78/59 69/69/59 70/70/59
f 76/76/60 67/67/60 68/68/60
f 66/66/61 73/73/61 65/65/61
f 65/65/62 80/80/62 72/72/62
f 79/79/63 70/70/63 71/71/63
f 77/77/64 68/68/64 69/69/64
f 67/67/65 74/74/65 66/66/65
f 83/83/66 74/74/66 75/75/66
f 88/88/67 79/79/67 80/80/67
f 78/78/68 85/85/68 77/77/68
f 76/76/69 83/83/69 75/75/69
f 82/82/70 73/73/70 74/74/70
f 81/81/71 80/80/71 73/73/71
f 79/79/72 86/86/72 78/78/72
f 77/77/73 84/84/73 76/76/73
f 89/89/74 88/88/74 81/81/74
f 87/87/75 94/94/75 86/86/75
f 85/85/76 92/92/76 84/84/76
f 83/83/77 90/90/77 82/82/77
f 96/96/78 87/87/78 88/88/78
f 94/94/79 85/85/79 86/86/79
f 92/92/80 83/83/80 84/84/80
f 82/82/81 89/89/81 81/81/81
f 92/92/82 99/99/82 91/91/82
f 98/98/83 89/89/83 90/90/83
f 89/89/84 104/104/84 96/96/84
f 103/103/85 94/94/85 95/95/85
f 101/101/86 92/92/86 93/93/86
f 91/91/87 98/98/87 90/90/87
f 104/104/88 95/95/88 96/96/88
f 94/94/89 101/101/89 93/93/89
f 101/101/90 103/103/90 97/97/90
f 109/109/91 116/116/91 117/117/91
f 106/106/92 115/115/92 107/107/92
f 111/111/93 120/120/93 112/112/93
f 110/110/94 117/117/94 118/118/94
f 108/108/95 115/115/95 116/116/95
f 105/105/96 114/114/96 106/106/96
f 112/112/97 113/113/97 105/105/97
f 111/111/98 118/118/98 119/119/98
f 120/120/99 127/127/99 128/128/99
f 117/117/100 126/126/100 118/118/100
f 115/115/101 124/124/101 116/116/101
f 114/114/102 121/121/102 122/122/102
f 113/113/103 128/128/103 121/121/103
f 118/118/104 127/127/104 119/119/104
f 116/116/105 125/125/105 117/117/105
f 115/115/106 122/122/106 123/123/106
f 122/122/107 131/131/107 123/123/107
f 127/127/108 136/136/108 128/128/108
f 126/126/109 133/133/109 134/134/109
f 124/124/110 131/131/110 132/132/110
f 121/121/111 130/130/111 122/122/111
f 128/128/112 129/129/112 121/121/112
f 127/127/113 134/134/113 135/135/113
f 125/125/114 132/132/114 133/133/114
f 129/129/115 144/144/115 137/137/115
f 135/135/116 142/142/116 143/143/116
f 133/133/117 140/140/117 141/141/117
f 130/130/118 139/139/118 131/131/118
f 136/136/119 143/143/119 144/144/119
f 133/133/120 142/142/120 134/134/120
f 131/131/121 140/140/121 132/132/121
f 129/129/122 138/138/122 130/130/122
f 139/139/123 148/148/123 140/140/123
f 137/137/124 146/146/124 138/138/124
f 144/144/125 145/145/125 137/137/125
f 143/143/126 150/150/126 151/151/126
f 141/141/127 148/148/127 149/149/127
f 138/138/128 147/147/128 139/139/128
f 143/143/129 152/152/129 144/144/129
f 142/142/130 149/149/130 150/150/130
f 151/151/131 149/149/131 147/147/131
f 5/5/1 13/13/1 12/12/1
f 11/11/2 10/10/2 2/2/2
f 16/16/3 15/15/3 7/7/3
f 6/6/4 14/14/4 13/13/4
f 4/4/5 12/12/5 11/11/5
f 10/10/132 9/9/132 1/1/132
f 9/9/7 16/16/7 8/8/7
f 7/7/8 15/15/8 14/14/8
f 24/24/133 23/23/133 49/49/133
f 22/22/134 21/21/134 51/51/134
f 54/54/135 20/20/135 19/19/135
f 56/56/136 18/18/136 17/17/136
f 55/55/137 17/17/137 24/24/137
f 23/23/138 22/22/138 52/52/138
f 21/21/139 20/20/139 54/54/139
f 53/53/140 19/19/140 18/18/140
f 27/27/17 26/26/17 18/18/17
f 32/32/18 31/31/18 23/23/18
f 22/22/19 30/30/19 29/29/19
f 20/20/20 28/28/20 27/27/20
f 26/26/21 25/25/21 17/17/21
f 25/25/141 32/32/141 24/24/141
f 23/23/23 31/31/23 30/30/23
f 21/21/24 29/29/24 28/28/24
f 25/25/142 33/33/142 40/40/142
f 31/31/143 39/39/143 38/38/143
f 29/29/144 37/37/144 36/36/144
f 27/27/28 35/35/28 34/34/28
f 32/32/145 40/40/145 39/39/145
f 38/38/146 37/37/146 29/29/146
f 36/36/31 35/35/31 27/27/31
f 26/26/147 34/34/147 33/33/147
f 36/36/33 44/44/33 43/43/33
f 42/42/148 41/41/148 33/33/148
f 33/33/149 41/41/149 48/48/149
f 39/39/150 47/47/150 46/46/150
f 37/37/151 45/45/151 44/44/151
f 43/43/152 42/42/152 34/34/152
f 48/48/153 47/47/153 39/39/153
f 46/46/154 45/45/154 37/37/154
f 41/41/155 42/42/155 43/43/155
f 43/43/156 44/44/156 45/45/156
f 45/45/155 46/46/155 47/47/155
f 47/47/157 48/48/157 41/41/157
f 41/41/158 43/43/158 45/45/158
f 53/53/159 56/56/159 10/10/159
f 51/51/160 54/54/160 12/12/160
f 15/15/161 49/49/161 52/52/161
f 9/9/162 55/55/162 50/50/162
f 10/10/163 56/56/163 55/55/163
f 54/54/164 53/53/164 11/11/164
f 52/52/165 51/51/165 13/13/165
f 16/16/166 50/50/166 49/49/166
f 61/61/167 69/69/167 68/68/167
f 67/67/51 66/66/51 58/58/51
f 72/72/168 71/71/168 63/63/168
f 62/62/169 70/70/169 69/69/169
f 60/60/170 68/68/170 67/67/170
f 66/66/171 65/65/171 57/57/171
f 65/65/172 72/72/172 64/64/172
f 63/63/173 71/71/173 70/70/173
f 80/80/174 79/79/174 71/71/174
f 78/78/175 77/77/175 69/69/175
f 76/76/176 75/75/176 67/67/176
f 66/66/177 74/74/177 73/73/177
f 65/65/178 73/73/178 80/80/178
f 79/79/179 78/78/179 70/70/179
f 77/77/180 76/76/180 68/68/180
f 67/67/181 75/75/181 74/74/181
f 83/83/66 82/82/66 74/74/66
f 88/88/67 87/87/67 79/79/67
f 78/78/182 86/86/182 85/85/182
f 76/76/69 84/84/69 83/83/69
f 82/82/183 81/81/183 73/73/183
f 81/81/184 88/88/184 80/80/184
f 79/79/72 87/87/72 86/86/72
f 77/77/185 85/85/185 84/84/185
f 89/89/186 96/96/186 88/88/186
f 87/87/187 95/95/187 94/94/187
f 85/85/188 93/93/188 92/92/188
f 83/83/189 91/91/189 90/90/189
f 96/96/190 95/95/190 87/87/190
f 94/94/191 93/93/191 85/85/191
f 92/92/192 91/91/192 83/83/192
f 82/82/193 90/90/193 89/89/193
f 92/92/194 100/100/194 99/99/194
f 98/98/195 97/97/195 89/89/195
f 89/89/196 97/97/196 104/104/196
f 103/103/197 102/102/197 94/94/197
f 101/101/198 100/100/198 92/92/198
f 91/91/199 99/99/199 98/98/199
f 104/104/200 103/103/200 95/95/200
f 94/94/201 102/102/201 101/101/201
f 97/97/202 98/98/202 99/99/202
f 99/99/203 100/100/203 101/101/203
f 101/101/204 102/102/204 103/103/204
f 103/103/205 104/104/205 97/97/205
f 97/97/206 99/99/206 101/101/206
f 109/109/207 108/108/207 116/116/207
f 106/106/208 114/114/208 115/115/208
f 111/111/209 119/119/209 120/120/209
f 110/110/210 109/109/210 117/117/210
f 108/108/211 107/107/211 115/115/211
f 105/105/96 113/113/96 114/114/96
f 112/112/97 120/120/97 113/113/97
f 111/111/98 110/110/98 118/118/98
f 120/120/212 119/119/212 127/127/212
f 117/117/213 125/125/213 126/126/213
f 115/115/214 123/123/214 124/124/214
f 114/114/215 113/113/215 121/121/215
f 113/113/216 120/120/216 128/128/216
f 118/118/217 126/126/217 127/127/217
f 116/116/218 124/124/218 125/125/218
f 115/115/219 114/114/219 122/122/219
f 122/122/220 130/130/220 131/131/220
f 127/127/108 135/135/108 136/136/108
f 126/126/221 125/125/221 133/133/221
f 124/124/110 123/123/110 131/131/110
f 121/121/222 129/129/222 130/130/222
f 128/128/223 136/136/223 129/129/223
f 127/127/224 126/126/224 134/134/224
f 125/125/225 124/124/225 132/132/225
f 129/129/115 136/136/115 144/144/115
f 135/135/226 134/134/226 142/142/226
f 133/133/227 132/132/227 140/140/227
f 130/130/228 138/138/228 139/139/228
f 136/136/229 135/135/229 143/143/229
f 133/133/230 141/141/230 142/142/230
f 131/131/231 139/139/231 140/140/231
f 129/129/232 137/137/232 138/138/232
f 139/139/233 147/147/233 148/148/233
f 137/137/234 145/145/234 146/146/234
f 144/144/235 152/152/235 145/145/235
f 143/143/236 142/142/236 150/150/236
f 141/141/237 140/140/237 148/148/237
f 138/138/238 146/146/238 147/147/238
f 143/143/239 151/151/239 152/152/239
f 142/142/240 141/141/240 149/149/240
f 147/147/241 146/146/241 145/145/241
f 145/145/242 152/152/242 151/151/242
f 151/151/243 150/150/243 149/149/243
f 149/149/244 148/148/244 147/147/244
f 147/147/245 145/145/245 151/151/245
