# Blender v3.0.0 OBJ File: 'Trees.blend'
# www.blender.org
mtllib Health Pick Up.mtl
o Health_Pickup_Cylinder.002
v 0.000001 0.137847 -0.300000
v 0.000001 0.187847 -0.300000
v 0.259808 0.137847 -0.150000
v 0.259808 0.187847 -0.150000
v 0.259808 0.137847 0.150000
v 0.259808 0.187847 0.150000
v 0.000001 0.137847 0.300000
v 0.000001 0.187847 0.300000
v -0.259807 0.137847 0.150000
v -0.259807 0.187847 0.150000
v -0.259807 0.137847 -0.150000
v -0.259807 0.187847 -0.150000
v 0.000002 0.185421 -0.000000
v 0.266161 0.075502 0.819168
v 0.557159 -0.326774 1.714782
v 1.803042 -0.326783 -0.000000
v 0.861334 0.075499 -0.000000
v -0.696827 0.075502 0.506270
v -1.458683 -0.326774 1.059784
v -0.696827 0.075502 -0.506270
v -1.458683 -0.326774 -1.059784
v 0.266161 0.075502 -0.819168
v 0.557159 -0.326774 -1.714782
v 1.240831 -0.176644 -0.901514
v -0.473959 -0.176641 -1.458674
v -1.533747 -0.176645 -0.000000
v -0.473959 -0.176641 1.458674
v 1.240830 -0.176644 0.901514
vt 0.923568 0.010771
vt 0.853398 0.037059
vt 0.917409 0.000102
vt 0.859558 0.047727
vt 0.847239 0.121640
vt 0.847239 0.047727
vt 0.859558 0.121640
vt 0.917409 0.169265
vt 0.853399 0.132309
vt 0.923568 0.158597
vt 0.993738 0.132309
vt 0.929728 0.169265
vt 0.987579 0.121640
vt 0.999898 0.047727
vt 0.999898 0.121640
vt 0.987579 0.047727
vt 0.929728 0.000102
vt 0.993738 0.037059
vt 0.714363 0.521018
vt 0.566552 0.715948
vt 0.506308 0.516763
vt 0.967749 0.526200
vt 0.814178 0.750208
vt 0.639922 0.958532
vt 0.335488 0.635610
vt 0.379424 0.881700
vt 0.127449 0.780351
vt 0.340490 0.391031
vt 0.120020 0.508862
vt 0.138543 0.237904
vt 0.574646 0.320207
vt 0.394450 0.146942
vt 0.657873 0.080826
vt 0.823465 0.296100
vn 0.0000 0.6100 -0.7924
vn 0.8660 0.0000 -0.5000
vn 0.0000 0.0000 -1.0000
vn 0.6862 0.6100 -0.3962
vn 0.8660 0.0000 0.5000
vn 0.6862 0.6100 0.3962
vn 0.0000 0.0000 1.0000
vn 0.0000 0.6100 0.7924
vn -0.8660 0.0000 0.5000
vn -0.6862 0.6100 0.3962
vn -0.8660 0.0000 -0.5000
vn -0.6862 0.6100 -0.3962
vn 0.2608 0.9654 0.0000
vn 0.0806 0.9654 -0.2480
vn 0.0000 1.0000 0.0000
vn 0.3928 0.9196 0.0000
vn 0.2796 0.9383 -0.2032
vn 0.1214 0.9196 -0.3736
vn -0.2109 0.9654 -0.1533
vn -0.1068 0.9383 -0.3287
vn -0.3178 0.9196 -0.2309
vn -0.2109 0.9654 0.1533
vn -0.3457 0.9383 0.0000
vn -0.3178 0.9196 0.2309
vn 0.0806 0.9654 0.2480
vn -0.1068 0.9383 0.3287
vn 0.1214 0.9196 0.3736
vn 0.2796 0.9383 0.2032
usemtl Material
s 1
f 2/1/1 3/2/2 1/3/3
f 4/4/4 5/5/5 3/6/2
f 6/7/6 7/8/7 5/9/5
f 8/10/8 9/11/9 7/12/7
f 10/13/10 8/10/8 6/7/6
f 10/13/10 11/14/11 9/15/9
f 12/16/12 1/17/3 11/18/11
f 17/19/13 22/20/14 13/21/15
f 16/22/16 24/23/17 17/19/13
f 17/19/13 24/23/17 22/20/14
f 24/23/17 23/24/18 22/20/14
f 22/20/14 20/25/19 13/21/15
f 23/24/18 25/26/20 22/20/14
f 22/20/14 25/26/20 20/25/19
f 25/26/20 21/27/21 20/25/19
f 20/25/19 18/28/22 13/21/15
f 21/27/21 26/29/23 20/25/19
f 20/25/19 26/29/23 18/28/22
f 26/29/23 19/30/24 18/28/22
f 18/28/22 14/31/25 13/21/15
f 19/30/24 27/32/26 18/28/22
f 18/28/22 27/32/26 14/31/25
f 27/32/26 15/33/27 14/31/25
f 14/31/25 17/19/13 13/21/15
f 15/33/27 28/34/28 14/31/25
f 14/31/25 28/34/28 17/19/13
f 28/34/28 16/22/16 17/19/13
f 2/1/1 4/4/4 3/2/2
f 4/4/4 6/7/6 5/5/5
f 6/7/6 8/10/8 7/8/7
f 8/10/8 10/13/10 9/11/9
f 6/7/6 4/4/4 10/13/10
f 4/4/4 2/1/1 10/13/10
f 2/1/1 12/16/12 10/13/10
f 10/13/10 12/16/12 11/14/11
f 12/16/12 2/1/1 1/17/3
