# Blender v3.0.0 OBJ File: 'Trees.blend'
# www.blender.org
mtllib Raised Plat.mtl
o Cube.028_Cube.032
v 1.125897 -0.191514 30.442389
v 1.125897 0.235251 30.442389
v 1.125897 -0.191514 25.948551
v 1.125897 0.235251 25.948551
v 14.312488 10.123771 30.442387
v 14.312488 10.550535 30.442387
v 14.312488 10.123771 25.948551
v 14.312488 10.550535 25.948551
v 14.319846 9.898252 30.442654
v 14.319846 10.712923 30.442654
v 14.319846 9.898252 14.319844
v 14.319846 10.712923 14.319844
v 30.442657 9.898252 30.442654
v 30.442657 10.712923 30.442654
v 30.442657 9.898252 14.319844
v 30.442657 10.712923 14.319844
v 25.948664 -0.191514 1.169946
v 25.948664 0.235251 1.169946
v 30.442503 -0.191514 1.169946
v 30.442503 0.235251 1.169946
v 25.948668 10.123771 14.356534
v 25.948668 10.550534 14.356534
v 30.442503 10.123771 14.356534
v 30.442503 10.550534 14.356534
vt 0.006665 1.013168
vt 0.951794 1.055248
vt 0.006666 1.055248
vt 0.951791 1.013168
vt 1.344876 0.010519
vt 1.344876 1.054314
vt 0.951790 -0.030626
vt 0.006584 -0.072709
vt 0.951786 -0.072709
vt -0.386504 0.045273
vt -0.386416 1.089067
vt 0.951791 2.098959
vt 0.006588 -0.030626
vt -1.899780 0.020674
vt -2.900405 -0.252434
vt -1.897843 -0.256882
vt 2.911427 -0.000673
vt 1.009041 -0.269780
vt 2.913360 -0.278229
vt 1.007104 0.007776
vt 0.006478 -0.265331
vt 0.004544 0.012225
vt 0.013388 -1.256182
vt 1.015949 -1.260630
vt 1.000193 0.998627
vt -0.132190 1.016658
vt 1.091062 1.059001
vt -0.132190 1.059002
vt 1.091061 1.016658
vt 1.353528 0.027988
vt 1.353529 1.058790
vt 1.091061 -0.014330
vt -0.132209 -0.056674
vt 1.091060 -0.056674
vt -0.394713 0.127842
vt -0.394704 1.158830
vt 1.091106 2.090006
vt -0.132208 -0.014330
vt 0.006742 2.098959
vt -2.902340 0.025122
vt -0.002368 1.003076
vt -0.132165 2.090006
vn -0.7049 0.3435 0.6205
vn -0.3658 -0.7506 -0.5502
vn -0.3658 -0.7506 0.5502
vn -0.7049 0.3435 -0.6205
vn 0.7049 -0.3435 -0.6205
vn 0.3658 0.7506 -0.5502
vn 0.7049 -0.3435 0.6205
vn 0.3658 0.7506 0.5502
vn -0.5773 0.5773 0.5773
vn -0.5773 -0.5773 -0.5773
vn -0.5773 -0.5773 0.5773
vn -0.5773 0.5773 -0.5773
vn 0.5773 -0.5773 -0.5773
vn 0.5773 0.5773 -0.5773
vn 0.5773 -0.5773 0.5773
vn 0.5773 0.5773 0.5773
vn -0.6205 0.3435 -0.7049
vn 0.5502 -0.7506 -0.3658
vn -0.5502 -0.7506 -0.3658
vn 0.6205 0.3435 -0.7049
vn 0.6205 -0.3435 0.7049
vn 0.5502 0.7506 0.3658
vn -0.6205 -0.3435 0.7049
vn -0.5502 0.7506 0.3658
usemtl Material.006
s 1
f 2/1/1 3/2/2 1/3/3
f 4/4/4 7/5/5 3/6/2
f 8/7/6 5/8/7 7/9/5
f 5/10/7 2/1/1 1/11/3
f 7/12/5 1/3/3 3/2/2
f 4/4/4 6/13/8 8/7/6
f 10/14/9 11/15/10 9/16/11
f 12/17/12 15/18/13 11/19/10
f 16/20/14 13/21/15 15/18/13
f 14/22/16 9/16/11 13/21/15
f 15/18/13 9/23/11 11/24/10
f 12/25/12 14/22/16 16/20/14
f 18/26/17 19/27/18 17/28/19
f 20/29/20 23/30/21 19/31/18
f 24/32/22 21/33/23 23/34/21
f 21/35/23 18/26/17 17/36/19
f 23/37/21 17/28/19 19/27/18
f 20/29/20 22/38/24 24/32/22
f 2/1/1 4/4/4 3/2/2
f 4/4/4 8/7/6 7/5/5
f 8/7/6 6/13/8 5/8/7
f 5/10/7 6/13/8 2/1/1
f 7/12/5 5/39/7 1/3/3
f 4/4/4 2/1/1 6/13/8
f 10/14/9 12/40/12 11/15/10
f 12/17/12 16/20/14 15/18/13
f 16/20/14 14/22/16 13/21/15
f 14/22/16 10/14/9 9/16/11
f 15/18/13 13/21/15 9/23/11
f 12/25/12 10/41/9 14/22/16
f 18/26/17 20/29/20 19/27/18
f 20/29/20 24/32/22 23/30/21
f 24/32/22 22/38/24 21/33/23
f 21/35/23 22/38/24 18/26/17
f 23/37/21 21/42/23 17/28/19
f 20/29/20 18/26/17 22/38/24
