# Blender v3.0.0 OBJ File: 'Trees.blend'
# www.blender.org
mtllib Tree Platforms.mtl
o Tree_Plats.002_Cube.031
v -2.675347 -0.490198 2.675347
v -2.675347 0.490198 2.675347
v -2.675347 -0.490198 -2.675346
v -2.675347 0.490198 -2.675346
v 2.675346 -0.490198 2.675347
v 2.675346 0.490198 2.675347
v 2.675346 -0.490198 -2.675346
v 2.675346 0.490198 -2.675346
vt 0.994904 -1.979678
vt 0.003607 -0.988381
vt 0.003607 -1.979678
vt 0.994904 -0.988381
vt 0.003607 0.002916
vt 0.994904 0.002916
vt 0.003607 0.994213
vt 0.994904 0.994213
vt 0.003607 1.985510
vt -0.987690 0.994213
vt -0.987690 0.002916
vt 1.986201 0.002916
vt 0.994904 1.985510
vt 1.986201 0.994213
vn -0.5773 0.5773 0.5773
vn -0.5773 -0.5773 -0.5773
vn -0.5773 -0.5773 0.5773
vn -0.5773 0.5773 -0.5773
vn 0.5773 -0.5773 -0.5773
vn 0.5773 0.5773 -0.5773
vn 0.5773 -0.5773 0.5773
vn 0.5773 0.5773 0.5773
usemtl Material.006
s 1
f 2/1/1 3/2/2 1/3/3
f 4/4/4 7/5/5 3/2/2
f 8/6/6 5/7/7 7/5/5
f 6/8/8 1/9/3 5/7/7
f 7/5/5 1/10/3 3/11/2
f 4/12/4 6/8/8 8/6/6
f 2/1/1 4/4/4 3/2/2
f 4/4/4 8/6/6 7/5/5
f 8/6/6 6/8/8 5/7/7
f 6/8/8 2/13/1 1/9/3
f 7/5/5 5/7/7 1/10/3
f 4/12/4 2/14/1 6/8/8
